{"title":"Street Light (2011) Bengali 1CD DVDScr XviD MP3 ESubs@Mastitorre","uid":6379100,"size":726315489,"categoryP":"video","categoryS":"movies","magnet":"?xt=urn:btih:c7a8cf28425ecc8d80a2da78916ff67c98fece02&amp;dn=Street+Light+%282011%29+Bengali+1CD+DVDScr+XviD+MP3+ESubs%40Mastitorre&amp;tr=udp%3A%2F%2Ftracker.openbittorrent.com%3A80&amp;tr=udp%3A%2F%2Fopen.demonii.com%3A1337&amp;tr=udp%3A%2F%2Ftracker.coppersurfer.tk%3A6969&amp;tr=udp%3A%2F%2Fexodus.desync.com%3A6969","seeders":0,"leechers":1,"uploader":"amanrulz","files":2,"time":1304965811,"description":"mastitorrents.com\n &lt;a href=&quot;\nhttp://mastitorrents.com/forums/index.php&quot; rel=&quot;nofollow&quot; target=&quot;_NEW&quot;&gt;\nhttp://mastitorrents.com/forums/index.php&lt;/a&gt;\n\nGeneral Source                           : joylogy (Thanks!) \nFormat                           : AVI \nFormat/Info                      : Audio \nVideo Interleave\n File size                        : 693 MiB \nDuration                         : 2h 13mn \nOverall bit rate                 : 723 Kbps  \nVideo ID                               : 0 Format                           : MPEG-4 \nVisual Format profile                   : Advanced \nSimple@L5 Format settings, BVOP            : Yes\n Format settings, QPel            : No \nFormat settings, GMC             : No warppoints \nFormat settings, Matrix          : Default (H.263) \nCodec ID                         : XVID Codec ID/Hint                    : XviD \nDuration                         : 2h 13mn Bit rate                         : 629 Kbps \nWidth                            : 640 pixels \nHeight                           : 304 pixels \nDisplay aspect ratio             : 2.2:1 \nFrame rate                       : 29.970 fps \nResolution                       : 8 bits Colorimetry                      : 4:2:0 \nScan type                        : Progressive \nBits/(Pixel*Frame)               : 0.108 \nStream size                      : 602 MiB (87%) \nWriting library                  : XviD \n1.2.1 (UTC 2008-12-04) \n Audio ID                               : 1 Format                           : MPEG Audio \nFormat version                   : Version 1 \nFormat profile                   : Layer 3 \nMode                             : Joint stereo\n Format_Settings_ModeExtension    : MS Stereo\n Codec ID                         : 55 Codec ID/\n Hint                    : MP3\n Duration                         : 2h 13mn \nBit rate mode                    : Variable \nBit rate                         : 83.0 Kbps \nNominal bit rate                 : 96.0 Kbps\n Channel(s)                       : 2 channels\n Sampling rate                    : 32.0 KHz \nStream size                      : 79.5 MiB (11%) \nAlignment                        : Aligned on interleaves \nInterleave, duration             : 36 ms (1.08 video frame) \nInterleave, preload \nduration     : 256 ms \nTitle                            : S.L-DVDScr-(2011)_track_1_ Writing library                  : LAME3.98r Encoding settings                : -m j -V 4 -q 2 -lowpass 15.1 --abr 96","torrent":{"xt":"urn:btih:c7a8cf28425ecc8d80a2da78916ff67c98fece02","amp;dn":"Street+Light+%282011%29+Bengali+1CD+DVDScr+XviD+MP3+ESubs%40Mastitorre","amp;tr":["udp%3A%2F%2Ftracker.openbittorrent.com%3A80","udp%3A%2F%2Fopen.demonii.com%3A1337","udp%3A%2F%2Ftracker.coppersurfer.tk%3A6969","udp%3A%2F%2Fexodus.desync.com%3A6969"],"infoHash":"c7a8cf28425ecc8d80a2da78916ff67c98fece02","infoHashBuffer":{"type":"Buffer","data":[199,168,207,40,66,94,204,141,128,162,218,120,145,111,246,124,152,254,206,2]},"announce":[],"urlList":[]}}